<svg id="Layer_1" xmlns="http://www.w3.org/2000/svg" xmlns:xlink="http://www.w3.org/1999/xlink" width="74.695" height="72.346" viewBox="0 0 74.695 72.346" enable-background="new 0 0 74.695 72.346"><g><path d="M29.503 65.345h16V41.407h-16V65.345zM42.566 62.407H32.441V44.345h10.125V62.407z"/><path d="M72.62 39.44l2.075-2.078-9.907-9.913V.47H50.974v13.161L37.349.0.0 37.363l2.077 2.078 7.832-7.832v37.799H5.971v2.938h63.875v-2.938h-5.059v-37.8L72.62 39.44zM53.913 3.408h7.938v21.104l-7.938-7.94V3.408zM61.85 69.407H12.846V28.671L37.348 4.169 61.85 28.671V69.407z"/><path d="M29.753 27.21c0 4.28 3.47 7.75 7.75 7.75s7.75-3.47 7.75-7.75c0-4.279-3.47-7.75-7.75-7.75S29.753 22.93 29.753 27.21zM37.503 22.241c2.745.0 4.97 2.225 4.97 4.97s-2.225 4.971-4.97 4.971-4.97-2.226-4.97-4.971S34.759 22.241 37.503 22.241z"/><path d="M16.909 41.407h3v3.938h-3z"/><path d="M22.846 41.407h3v3.938h-3z"/><path d="M16.909 47.407h3v3.938h-3z"/><path d="M22.846 47.407h3v3.938h-3z"/><path d="M48.846 41.407h3v3.938h-3z"/><path d="M54.784 41.407h3v3.938h-3z"/><path d="M48.846 47.407h3v3.938h-3z"/><path d="M54.784 47.407h3v3.938h-3z"/></g></svg>