<svg version="1.0" id="Layer_1" xmlns="http://www.w3.org/2000/svg" xmlns:xlink="http://www.w3.org/1999/xlink" width="32" height="20" viewBox="0 0 32 20" enable-background="new 0 0 32 20"><path fill="#454545" d="M29 0H3C1.35.0.0 1.35.0 3v14c0 1.65 1.35 3 3 3h26c1.65.0 3-1.35 3-3V3C32 1.35 30.65.0 29 0zM14.403 15.854c-.545.108-1.104.164-1.678.164-.694.0-1.354-.107-1.976-.323-.623-.214-1.172-.562-1.646-1.041s-.852-1.103-1.133-1.868C7.69 12.02 7.551 11.091 7.551 10c0-1.134.157-2.085.471-2.851.315-.768.723-1.384 1.224-1.854.502-.468 1.062-.804 1.679-1.008.616-.204 1.233-.307 1.852-.307.66.0 1.22.045 1.678.134.457.087.835.192 1.133.313L15.14 6.347c-.254-.121-.555-.209-.902-.265C13.891 6.027 13.47 6 12.973 6c-.915.0-1.649.325-2.206.977-.558.651-.836 1.663-.836 3.031.0.598.067 1.142.199 1.632.132.493.334.913.603 1.26.271.349.607.619 1.01.812.402.193.867.29 1.396.29.496.0.915-.049 1.257-.148.342-.099.639-.227.893-.38l.463 1.841C15.398 15.564 14.949 15.745 14.403 15.854zM23.101 15.854c-.545.108-1.105.164-1.678.164-.694.0-1.354-.107-1.976-.323-.623-.214-1.172-.562-1.646-1.041s-.852-1.103-1.133-1.868c-.281-.767-.421-1.695-.421-2.786.0-1.134.157-2.085.471-2.851.314-.768.723-1.384 1.223-1.854.502-.468 1.062-.804 1.68-1.008.616-.204 1.233-.307 1.851-.307.661.0 1.221.045 1.678.134.458.087.836.192 1.133.313l-.446 1.918c-.253-.121-.554-.209-.901-.265C22.588 6.027 22.166 6 21.67 6c-.915.0-1.649.325-2.206.977-.558.651-.836 1.663-.836 3.031.0.598.067 1.142.199 1.632.132.493.334.913.603 1.26.271.349.606.619 1.009.812.402.193.868.29 1.396.29.497.0.915-.049 1.257-.148.342-.099.64-.227.894-.38l.463 1.841C24.096 15.564 23.646 15.745 23.101 15.854z"/></svg>