<svg id="Layer_1" xmlns="http://www.w3.org/2000/svg" xmlns:xlink="http://www.w3.org/1999/xlink" width="76.166" height="68.959" viewBox="0 0 76.166 68.959" enable-background="new 0 0 76.166 68.959"><g><path d="M71.914 46.042H4.252C1.914 46.042.0 47.955.0 50.294v3.454C0 56.086 1.914 58 4.252 58h.956v1.037c0 5.457 4.464 9.922 9.921 9.922h45.908c5.456.0 9.921-4.465 9.921-9.922V58h.956c2.339.0 4.252-1.914 4.252-4.252v-3.454C76.166 47.955 74.253 46.042 71.914 46.042zM67.958 59.037c0 3.815-3.104 6.922-6.921 6.922H15.129c-3.816.0-6.921-3.104-6.921-6.922V58h59.75V59.037zM73.166 53.748c0 .679-.573 1.252-1.252 1.252H4.252C3.573 55 3 54.427 3 53.748v-3.454c0-.679.573-1.252 1.252-1.252h67.662c.679.0 1.252.573 1.252 1.252V53.748z"/><path d="M16.162 37.856 21.635 41.856 27.112 37.856 32.591 41.856 38.069 37.856 43.548 41.856 49.026 37.856 54.505 41.856 59.985 37.856 65.474 41.856 71.842 37.212 70.074 34.788 65.474 38.144 59.985 34.144 54.505 38.144 49.026 34.143 43.548 38.144 38.069 34.143 32.591 38.144 27.112 34.143 21.636 38.144 16.163 34.142 10.686 38.144 6.093 34.789 4.323 37.211 10.686 41.856z"/><path d="M70.888 31.094c.041-.61.055-2.616.037-3C70.242 12.476 55.804.0 38.083.0 20.363.0 5.924 12.476 5.241 28.094c-.017.384-.004 2.389.039 3H70.888zM38.083 3c16.031.0 29.15 11.154 29.842 25.094H8.241C8.933 14.154 22.051 3 38.083 3z"/><circle cx="38.083" cy="15.042" r="2"/><circle cx="30.083" cy="10.083" r="2"/><circle cx="46.083" cy="10.083" r="2"/></g></svg>