<svg version="1.0" id="Layer_1" xmlns="http://www.w3.org/2000/svg" xmlns:xlink="http://www.w3.org/1999/xlink" width="22" height="20" viewBox="0 0 22 20" enable-background="new 0 0 22 20"><g id="Page-1"><g id="Core" transform="translate(-295.000000, -464.000000)"><g id="thumb-up" transform="translate(295.000000, 464.000000)"><path id="Shape" fill="#000" d="M12.383 3.646l-.637 2.929L11.219 9H13.7h6.2v2c0 .018.0.037.001.058L17 18H8V8.029l.014-.015L12.383 3.646M2 10v8-8M13.2.0 6.6 6.6C6.2 6.9 6 7.4 6 8v10c0 1.1.9 2 2 2h9c.8.0 1.5-.5 1.8-1.2l3-7.1C21.9 11.5 21.9 11.2 21.9 11V9H22c0-1.1-.9-2-2-2h-6.3l1-4.6V2.1c0-.4-.2-.8-.4-1.1L13.2.0V0zM4 8H0v12h4V8 8zM22 9c0 .033.0.044.0.044V9 9z"/></g></g></g></svg>